<svg xmlns="http://www.w3.org/2000/svg" viewBox="0 0 50 50"><path d="M 24.875 3 C 24.496094 3.054688 24.179688 3.320313 24.0625 3.6875 C 18.574219 20.148438 6.5 27.125 6.5 27.125 C 6.160156 27.324219 5.96875 27.699219 6.007813 28.089844 C 6.050781 28.480469 6.316406 28.8125 6.6875 28.9375 L 19.125 33 L 7 33 C 5.335938 33 4 34.335938 4 36 C 4 37.28125 4.621094 38.417969 5.5 39.375 C 6.378906 40.332031 7.539063 41.136719 8.8125 41.875 C 10.125 42.632813 11.5625 43.277344 12.96875 43.84375 C 11.667969 43.691406 10.070313 43.28125 9 42.4375 C 8.8125 42.289063 8.582031 42.210938 8.34375 42.21875 C 8.136719 42.230469 7.941406 42.308594 7.78125 42.4375 C 6.429688 43.503906 4.199219 43.9375 2.84375 43.9375 C 2.214844 43.9375 1.675781 43.890625 1.15625 43.8125 C 0.789063 43.722656 0.40625 43.847656 0.160156 44.132813 C -0.0859375 44.417969 -0.148438 44.820313 -0.00390625 45.167969 C 0.140625 45.515625 0.46875 45.753906 0.84375 45.78125 C 1.433594 45.871094 2.09375 45.9375 2.84375 45.9375 C 4.390625 45.9375 6.550781 45.515625 8.375 44.34375 C 10.203125 45.527344 12.382813 45.9375 13.9375 45.9375 C 15.484375 45.9375 17.644531 45.515625 19.46875 44.34375 C 21.292969 45.515625 23.453125 45.9375 25 45.9375 C 26.546875 45.9375 28.707031 45.515625 30.53125 44.34375 C 30.757813 44.488281 30.980469 44.625 31.21875 44.75 C 31.378906 44.90625 31.589844 45.007813 31.8125 45.03125 C 33.300781 45.683594 34.867188 45.9375 36.0625 45.9375 C 37.617188 45.9375 39.796875 45.527344 41.625 44.34375 C 43.449219 45.515625 45.609375 45.9375 47.15625 45.9375 C 48.019531 45.9375 48.75 45.804688 49.34375 45.59375 C 49.871094 45.402344 50.144531 44.824219 49.953125 44.296875 C 49.761719 43.769531 49.183594 43.496094 48.65625 43.6875 C 48.261719 43.828125 47.804688 43.9375 47.15625 43.9375 C 45.800781 43.9375 43.570313 43.503906 42.21875 42.4375 C 41.859375 42.160156 41.359375 42.160156 41 42.4375 C 39.648438 43.503906 37.417969 43.9375 36.0625 43.9375 C 35.796875 43.9375 35.472656 43.910156 35.15625 43.875 C 38.675781 42.382813 42.601563 40.066406 45.75 36.6875 C 46.25 36.148438 46.761719 35.753906 47 34.875 C 47.058594 34.65625 47.09375 34.371094 47 34.0625 C 46.90625 33.753906 46.675781 33.46875 46.4375 33.3125 C 45.964844 33.003906 45.535156 33 45 33 L 43.09375 33 C 43.128906 31.566406 42.996094 28.890625 41.96875 25.46875 C 40.417969 20.292969 36.789063 13.367188 28.65625 6.25 C 28.429688 6.042969 28.117188 5.949219 27.8125 6 C 27.546875 6.046875 27.3125 6.199219 27.160156 6.425781 C 27.003906 6.648438 26.949219 6.921875 27 7.1875 C 28.476563 15.0625 27.96875 20.671875 27.125 24.28125 C 26.757813 25.855469 26.351563 26.957031 26 27.78125 L 26 4 C 26.003906 3.710938 25.878906 3.4375 25.664063 3.246094 C 25.449219 3.054688 25.160156 2.964844 24.875 3 Z M 24 9.125 L 24 32.46875 L 9.21875 27.6875 C 12.273438 25.503906 19.195313 19.667969 24 9.125 Z M 29.40625 9.8125 C 35.683594 15.929688 38.730469 21.695313 40.03125 26.03125 C 41.089844 29.558594 41.09375 31.609375 41.03125 32.71875 L 27.5 29.34375 C 27.980469 28.386719 28.601563 26.957031 29.125 24.71875 C 29.914063 21.339844 30.289063 16.359375 29.40625 9.8125 Z M 26 31.03125 L 33.875 33 L 26 33 Z M 7 35 L 44.5 35 C 44.382813 35.152344 44.402344 35.148438 44.25 35.3125 C 40.636719 39.191406 35.769531 41.652344 31.96875 42.9375 C 31.679688 42.785156 31.398438 42.628906 31.15625 42.4375 C 30.789063 42.144531 30.273438 42.144531 29.90625 42.4375 C 28.554688 43.503906 26.355469 43.9375 25 43.9375 C 23.644531 43.9375 21.449219 43.503906 20.09375 42.4375 C 19.726563 42.144531 19.210938 42.144531 18.84375 42.4375 C 18.414063 42.777344 17.890625 43.03125 17.34375 43.25 C 17.332031 43.25 17.324219 43.25 17.3125 43.25 C 15.082031 42.566406 12.136719 41.46875 9.8125 40.125 C 8.652344 39.453125 7.632813 38.722656 6.96875 38 C 6.304688 37.277344 6 36.613281 6 36 C 6 35.601563 6.601563 35 7 35 Z M 8.25 46.21875 C 8.078125 46.25 7.914063 46.324219 7.78125 46.4375 C 6.429688 47.503906 4.199219 47.9375 2.84375 47.9375 C 2.214844 47.9375 1.675781 47.890625 1.15625 47.8125 C 0.789063 47.722656 0.40625 47.847656 0.160156 48.132813 C -0.0859375 48.417969 -0.148438 48.820313 -0.00390625 49.167969 C 0.140625 49.515625 0.46875 49.753906 0.84375 49.78125 C 1.433594 49.871094 2.09375 49.9375 2.84375 49.9375 C 4.390625 49.9375 6.550781 49.515625 8.375 48.34375 C 10.203125 49.527344 12.382813 49.9375 13.9375 49.9375 C 15.484375 49.9375 17.644531 49.515625 19.46875 48.34375 C 21.292969 49.515625 23.453125 49.9375 25 49.9375 C 26.546875 49.9375 28.707031 49.515625 30.53125 48.34375 C 32.355469 49.515625 34.515625 49.9375 36.0625 49.9375 C 37.617188 49.9375 39.796875 49.527344 41.625 48.34375 C 43.449219 49.515625 45.609375 49.9375 47.15625 49.9375 C 48.019531 49.9375 48.75 49.804688 49.34375 49.59375 C 49.871094 49.402344 50.144531 48.824219 49.953125 48.296875 C 49.761719 47.769531 49.183594 47.496094 48.65625 47.6875 C 48.261719 47.828125 47.804688 47.9375 47.15625 47.9375 C 45.800781 47.9375 43.570313 47.503906 42.21875 46.4375 C 41.859375 46.160156 41.359375 46.160156 41 46.4375 C 39.648438 47.503906 37.417969 47.9375 36.0625 47.9375 C 34.707031 47.9375 32.511719 47.503906 31.15625 46.4375 C 30.789063 46.144531 30.273438 46.144531 29.90625 46.4375 C 28.554688 47.503906 26.355469 47.9375 25 47.9375 C 23.644531 47.9375 21.449219 47.503906 20.09375 46.4375 C 19.726563 46.144531 19.210938 46.144531 18.84375 46.4375 C 17.492188 47.503906 15.292969 47.9375 13.9375 47.9375 C 12.582031 47.9375 10.351563 47.503906 9 46.4375 C 8.8125 46.289063 8.582031 46.210938 8.34375 46.21875 C 8.3125 46.21875 8.28125 46.21875 8.25 46.21875 Z"></path></svg>