<?xml version="1.0" encoding="UTF-8" standalone="no"?>
<svg
   xmlns:dc="http://purl.org/dc/elements/1.1/"
   xmlns:cc="http://creativecommons.org/ns#"
   xmlns:rdf="http://www.w3.org/1999/02/22-rdf-syntax-ns#"
   xmlns:svg="http://www.w3.org/2000/svg"
   xmlns="http://www.w3.org/2000/svg"
   xmlns:sodipodi="http://sodipodi.sourceforge.net/DTD/sodipodi-0.dtd"
   xmlns:inkscape="http://www.inkscape.org/namespaces/inkscape"
   width="177.48267mm"
   height="18.201563mm"
   viewBox="0 0 177.48266 18.201563"
   version="1.1"
   id="svg8"
   inkscape:version="1.0.2 (e86c8708, 2021-01-15)"
   sodipodi:docname="logo.svg">
  <defs
     id="defs2" />
  <sodipodi:namedview
     id="base"
     pagecolor="#ffffff"
     bordercolor="#666666"
     borderopacity="1.0"
     inkscape:pageopacity="0.0"
     inkscape:pageshadow="2"
     inkscape:zoom="0.7"
     inkscape:cx="319.4118"
     inkscape:cy="101.35986"
     inkscape:document-units="mm"
     inkscape:current-layer="layer1"
     inkscape:document-rotation="0"
     showgrid="false"
     inkscape:window-width="1280"
     inkscape:window-height="691"
     inkscape:window-x="0"
     inkscape:window-y="25"
     inkscape:window-maximized="0" />
  <metadata
     id="metadata5">
    <rdf:RDF>
      <cc:Work
         rdf:about="">
        <dc:format>image/svg+xml</dc:format>
        <dc:type
           rdf:resource="http://purl.org/dc/dcmitype/StillImage" />
        <dc:title></dc:title>
      </cc:Work>
    </rdf:RDF>
  </metadata>
  <g
     inkscape:label="Layer 1"
     inkscape:groupmode="layer"
     id="layer1"
     transform="translate(73.623721,-109.96172)">
    <g
       id="g843"
       transform="matrix(0.03025204,0,0,-0.03025204,-73.623721,128.16328)">
      <path
         d="M 2900,148.328 C 2900,148.328 1561.74,0 1001.74,0 198.332,0 0,601.664 0,601.664 L 2966.67,383.965 2900,148.328"
         style="fill:#33436e;fill-opacity:1;fill-rule:nonzero;stroke:none"
         id="path845" />
      <path
         d="m 971.137,351.07 c 3.601,4.317 8.035,6.473 13.32,6.473 4.805,0 8.875,-1.68 12.246,-5.039 3.357,-3.359 5.037,-7.441 5.037,-12.234 0,-4.329 -1.2,-7.813 -3.603,-10.45 l -0.36,-0.363 -87.129,-117.387 c -4.328,-5.515 -9.785,-10.019 -16.386,-13.496 -6.602,-3.484 -13.75,-5.226 -21.426,-5.226 -7.199,0 -13.984,1.562 -20.344,4.679 -6.367,3.125 -11.699,7.442 -16.023,12.969 l -87.5,117.027 c -1.438,1.68 -2.637,3.536 -3.594,5.575 -0.969,2.043 -1.445,4.269 -1.445,6.672 0,4.793 1.679,8.875 5.039,12.234 3.359,3.359 7.441,5.039 12.246,5.039 5.762,0 10.32,-2.285 13.68,-6.836 l 83.898,-111.984 c 1.68,-1.926 3.777,-4.028 6.297,-6.301 2.519,-2.285 5.098,-3.43 7.746,-3.43 2.637,0 5.223,1.145 7.742,3.43 2.52,2.273 4.504,4.375 5.938,6.301 l 84.621,112.347"
         style="fill:#ffffff;fill-opacity:1;fill-rule:nonzero;stroke:none"
         id="path847" />
      <path
         d="m 1232.9,205.598 c -3.37,-3.371 -7.44,-5.039 -12.24,-5.039 -4.81,0 -8.89,1.668 -12.25,5.039 -3.36,3.355 -5.04,7.429 -5.04,12.234 V 340.27 c 0,4.793 1.68,8.875 5.04,12.234 3.36,3.359 7.44,5.039 12.25,5.039 4.8,0 8.87,-1.68 12.24,-5.039 3.36,-3.359 5.04,-7.441 5.04,-12.234 V 217.832 c 0,-4.805 -1.68,-8.879 -5.04,-12.234"
         style="fill:#ffffff;fill-opacity:1;fill-rule:nonzero;stroke:none"
         id="path849" />
      <path
         d="m 1468.74,265.547 c -5.76,2.519 -10.8,5.937 -15.11,10.269 -4.33,4.317 -7.75,9.356 -10.27,15.118 -2.52,5.761 -3.78,12 -3.78,18.718 0,6.719 1.26,12.969 3.78,18.731 2.52,5.762 5.94,10.801 10.27,15.117 4.31,4.328 9.35,7.746 15.11,10.266 5.77,2.519 12.01,3.777 18.73,3.777 h 218.56 c 4.8,0 8.88,-1.68 12.24,-5.039 3.36,-3.359 5.04,-7.441 5.04,-12.234 0,-4.805 -1.68,-8.887 -5.04,-12.247 -3.36,-3.371 -7.44,-5.039 -12.24,-5.039 h -219.28 c -3.6,0 -6.79,-1.261 -9.54,-3.781 -2.76,-2.527 -4.14,-5.711 -4.14,-9.551 0,-3.593 1.38,-6.718 4.14,-9.355 2.75,-2.645 5.94,-3.965 9.54,-3.965 h 199.12 c 6.71,0 13.02,-1.258 18.9,-3.777 5.88,-2.52 10.99,-5.938 15.3,-10.266 4.33,-4.316 7.75,-9.43 10.27,-15.309 2.51,-5.878 3.77,-12.183 3.77,-18.894 0,-6.731 -1.26,-12.969 -3.77,-18.731 -2.52,-5.761 -5.94,-10.8 -10.27,-15.117 -4.31,-4.328 -9.42,-7.683 -15.3,-10.09 -5.88,-2.402 -12.19,-3.589 -18.9,-3.589 h -218.2 c -4.81,0 -8.89,1.668 -12.25,5.039 -3.36,3.355 -5.04,7.429 -5.04,12.234 0,4.805 1.68,8.879 5.04,12.246 3.36,3.36 7.44,5.039 12.25,5.039 h 219.64 c 3.6,0 6.72,1.262 9.36,3.778 2.64,2.519 3.96,5.585 3.96,9.191 0,3.828 -1.32,7.07 -3.96,9.719 -2.64,2.633 -5.76,3.961 -9.36,3.961 h -199.84 c -6.72,0 -12.96,1.261 -18.73,3.781"
         style="fill:#ffffff;fill-opacity:1;fill-rule:nonzero;stroke:none"
         id="path851" />
      <path
         d="m 2200.76,357.543 c 4.8,0 8.88,-1.68 12.24,-5.039 3.36,-3.359 5.05,-7.441 5.05,-12.234 0,-4.571 -1.57,-8.469 -4.69,-11.711 -3.11,-3.243 -6.83,-5.098 -11.16,-5.575 h -72.37 c -7.2,-0.488 -13.15,-2.226 -17.82,-5.226 -4.68,-3.008 -8.34,-6.66 -10.98,-10.977 -2.65,-4.324 -4.45,-9.004 -5.4,-14.043 -0.97,-5.047 -1.45,-9.609 -1.45,-13.691 v -61.215 c 0,-4.805 -1.68,-8.879 -5.04,-12.234 -3.37,-3.371 -7.44,-5.039 -12.24,-5.039 -4.81,0 -8.88,1.668 -12.24,5.039 -3.37,3.355 -5.05,7.429 -5.05,12.234 v 61.215 c 0,7.441 0.96,14.953 2.88,22.512 1.93,7.558 4.81,14.695 8.65,21.425 h -118.1 c -4.8,0 -8.89,1.668 -12.25,5.039 -3.36,3.36 -5.03,7.442 -5.03,12.247 0,4.793 1.67,8.875 5.03,12.234 3.36,3.359 7.45,5.039 12.25,5.039 h 247.72"
         style="fill:#ffffff;fill-opacity:1;fill-rule:nonzero;stroke:none"
         id="path853" />
      <path
         d="m 2405.28,207.031 c -3.6,-4.316 -8.05,-6.472 -13.32,-6.472 -4.81,0 -8.89,1.668 -12.25,5.039 -3.36,3.355 -5.04,7.429 -5.04,12.234 0,4.324 1.2,7.805 3.6,10.449 l 87.5,117.739 c 4.08,5.527 9.48,10.031 16.21,13.507 6.71,3.477 13.91,5.223 21.6,5.223 7.2,0 14.04,-1.562 20.52,-4.687 6.48,-3.114 11.76,-7.442 15.84,-12.958 l 87.5,-117.027 c 1.44,-1.68 2.64,-3.547 3.6,-5.574 0.96,-2.055 1.44,-4.27 1.44,-6.672 0,-4.805 -1.68,-8.879 -5.04,-12.234 -3.36,-3.371 -7.44,-5.039 -12.24,-5.039 -5.76,0 -10.32,2.273 -13.68,6.832 l -83.9,111.988 c -1.68,1.914 -3.78,4.016 -6.3,6.301 -2.52,2.285 -5.11,3.425 -7.74,3.425 -2.65,0 -5.23,-1.14 -7.75,-3.425 -2.52,-2.285 -4.5,-4.387 -5.93,-6.301 l -84.62,-112.348"
         style="fill:#ffffff;fill-opacity:1;fill-rule:nonzero;stroke:none"
         id="path855" />
      <path
         d="m 3403.22,239.617 c 5.28,3 9.42,6.66 12.43,10.988 3,4.317 5.04,9.051 6.11,14.219 1.09,5.156 1.62,9.903 1.62,14.223 0,4.328 -0.53,9.062 -1.62,14.23 -1.07,5.157 -3.11,9.903 -6.11,14.219 -3.01,4.324 -7.15,7.977 -12.43,10.984 -5.28,3 -12.01,4.504 -20.16,4.504 h -145.47 c -8.41,0 -15.18,-1.504 -20.34,-4.504 -5.17,-3.007 -9.25,-6.66 -12.25,-10.984 -3,-4.316 -5.04,-9.062 -6.12,-14.219 -1.07,-5.168 -1.62,-9.902 -1.62,-14.23 0,-4.32 0.55,-9.067 1.62,-14.223 1.08,-5.168 3.12,-9.902 6.12,-14.219 3,-4.328 7.08,-7.988 12.25,-10.988 5.16,-3.008 11.93,-4.5 20.34,-4.5 h 145.47 c 8.15,0 14.88,1.492 20.16,4.5 z m 53.65,39.43 c 0,-9.125 -1.51,-18.305 -4.5,-27.543 -3,-9.246 -7.38,-17.649 -13.14,-25.203 -5.76,-7.563 -12.73,-13.75 -20.89,-18.547 -8.16,-4.805 -17.4,-7.195 -27.72,-7.195 h -164.19 c -9.84,0.476 -18.6,3.171 -26.29,8.093 -7.69,4.922 -14.22,11.106 -19.62,18.543 -5.4,7.446 -9.54,15.727 -12.42,24.844 -2.88,9.121 -4.33,18.125 -4.33,27.008 0,9.121 1.51,18.312 4.5,27.551 3,9.238 7.39,17.644 13.15,25.203 5.76,7.558 12.72,13.742 20.88,18.547 8.16,4.793 17.4,7.195 27.73,7.195 h 164.19 c 9.84,-0.477 18.6,-3.184 26.28,-8.094 7.69,-4.922 14.23,-11.113 19.63,-18.547 5.4,-7.441 9.54,-15.722 12.42,-24.843 2.88,-9.129 4.32,-18.125 4.32,-27.012"
         style="fill:#4f4c4c;fill-opacity:1;fill-rule:nonzero;stroke:none"
         id="path857" />
      <path
         d="m 3658.5,279.047 c 0,9.121 1.5,18.312 4.5,27.551 3,9.238 7.38,17.644 13.15,25.203 5.76,7.558 12.72,13.742 20.87,18.547 8.17,4.793 17.41,7.195 27.74,7.195 h 209.91 c 4.81,0 8.88,-1.68 12.25,-5.039 3.36,-3.359 5.04,-7.441 5.04,-12.234 0,-4.805 -1.68,-8.887 -5.04,-12.247 -3.37,-3.371 -7.44,-5.039 -12.25,-5.039 h -202.35 c -8.41,0 -15.19,-1.504 -20.34,-4.504 -5.17,-3.007 -9.25,-6.66 -12.25,-10.984 -3.01,-4.316 -5.04,-9.062 -6.12,-14.219 -1.08,-5.168 -1.62,-9.902 -1.62,-14.23 0,-4.32 0.54,-9.067 1.62,-14.223 1.08,-5.168 3.11,-9.902 6.12,-14.219 3,-4.328 7.08,-7.988 12.25,-10.988 5.15,-3.008 11.93,-4.5 20.34,-4.5 h 202.35 c 4.81,0 8.88,-1.679 12.25,-5.039 3.36,-3.367 5.04,-7.441 5.04,-12.246 0,-4.805 -1.68,-8.879 -5.04,-12.234 -3.37,-3.371 -7.44,-5.039 -12.25,-5.039 h -213.51 c -9.85,0 -18.61,2.39 -26.29,7.195 -7.69,4.797 -14.22,10.984 -19.62,18.547 -5.4,7.554 -9.54,16.023 -12.42,25.379 -2.89,9.367 -4.33,18.484 -4.33,27.367"
         style="fill:#4f4c4c;fill-opacity:1;fill-rule:nonzero;stroke:none"
         id="path859" />
      <path
         d="m 4414.29,291.293 c 3.36,-3.359 5.04,-7.441 5.04,-12.246 0,-4.809 -1.68,-8.883 -5.04,-12.238 -3.37,-3.371 -7.45,-5.043 -12.25,-5.043 h -79.31 c -4.81,0 -8.88,1.672 -12.24,5.043 -3.37,3.355 -5.05,7.429 -5.05,12.238 0,4.805 1.68,8.887 5.05,12.246 3.36,3.359 7.43,5.039 12.24,5.039 h 79.31 c 4.8,0 8.88,-1.68 12.25,-5.039 z m -195.52,31.691 c -8.41,0 -15.18,-1.504 -20.34,-4.504 -5.16,-3.007 -9.25,-6.66 -12.25,-10.984 -3,-4.316 -5.03,-9.062 -6.12,-14.219 -1.08,-5.168 -1.62,-9.902 -1.62,-14.23 0,-4.32 0.54,-9.067 1.62,-14.223 1.09,-5.168 3.12,-9.902 6.12,-14.219 3,-4.328 7.09,-7.988 12.25,-10.988 5.16,-3.008 11.93,-4.5 20.34,-4.5 h 198.4 c 4.8,0 8.88,-1.679 12.24,-5.039 3.36,-3.367 5.04,-7.441 5.04,-12.246 0,-4.805 -1.68,-8.879 -5.04,-12.234 -3.36,-3.371 -7.44,-5.039 -12.24,-5.039 h -209.92 c -9.84,0 -18.6,2.39 -26.29,7.195 -7.69,4.797 -14.22,10.984 -19.62,18.547 -5.4,7.554 -9.54,16.023 -12.42,25.379 -2.88,9.367 -4.33,18.484 -4.33,27.367 0,9.121 1.51,18.312 4.51,27.551 2.99,9.238 7.38,17.644 13.14,25.203 5.76,7.558 12.72,13.742 20.88,18.547 8.16,4.793 17.4,7.195 27.73,7.195 h 206.32 c 4.8,0 8.88,-1.68 12.24,-5.039 3.36,-3.359 5.04,-7.441 5.04,-12.234 0,-4.805 -1.68,-8.887 -5.04,-12.247 -3.36,-3.371 -7.44,-5.039 -12.24,-5.039 h -198.4"
         style="fill:#4f4c4c;fill-opacity:1;fill-rule:nonzero;stroke:none"
         id="path861" />
      <path
         d="m 4666.7,207.031 c -3.6,-4.316 -8.04,-6.472 -13.33,-6.472 -4.8,0 -8.87,1.668 -12.23,5.039 -3.37,3.355 -5.04,7.429 -5.04,12.234 0,4.324 1.19,7.805 3.59,10.449 l 87.5,117.739 c 4.08,5.527 9.48,10.031 16.2,13.507 6.72,3.477 13.92,5.223 21.6,5.223 7.21,0 14.05,-1.562 20.53,-4.687 6.49,-3.114 11.76,-7.442 15.84,-12.958 l 87.5,-117.027 c 1.44,-1.68 2.64,-3.547 3.6,-5.574 0.96,-2.055 1.44,-4.27 1.44,-6.672 0,-4.805 -1.68,-8.879 -5.04,-12.234 -3.37,-3.371 -7.44,-5.039 -12.25,-5.039 -5.76,0 -10.32,2.273 -13.68,6.832 l -83.89,111.988 c -1.68,1.914 -3.78,4.016 -6.3,6.301 -2.52,2.285 -5.1,3.425 -7.75,3.425 -2.63,0 -5.21,-1.14 -7.73,-3.425 -2.52,-2.285 -4.5,-4.387 -5.95,-6.301 L 4666.7,207.031"
         style="fill:#4f4c4c;fill-opacity:1;fill-rule:nonzero;stroke:none"
         id="path863" />
      <path
         d="m 5339.12,293.277 c -1.08,5.157 -3.12,9.903 -6.12,14.219 -3.01,4.324 -7.15,7.977 -12.42,10.984 -5.28,3 -12.01,4.504 -20.17,4.504 h -129.98 c -8.41,0 -15.18,-1.504 -20.34,-4.504 -5.17,-3.007 -9.25,-6.66 -12.25,-10.984 -3,-4.316 -5.03,-9.062 -6.12,-14.219 -1.08,-5.168 -1.62,-9.902 -1.62,-14.23 v -61.215 c 0,-4.805 -1.68,-8.879 -5.04,-12.234 -3.37,-3.371 -7.44,-5.039 -12.24,-5.039 -4.81,0 -8.88,1.668 -12.24,5.039 -3.37,3.355 -5.04,7.429 -5.04,12.234 v 61.215 c 0,9.121 1.49,18.312 4.49,27.551 3.01,9.238 7.39,17.644 13.15,25.203 5.76,7.558 12.72,13.742 20.89,18.547 8.15,4.793 17.4,7.195 27.72,7.195 h 150.87 c 9.83,-0.477 18.59,-3.184 26.28,-8.094 7.68,-4.922 14.23,-11.113 19.63,-18.547 5.4,-7.441 9.54,-15.722 12.42,-24.843 2.88,-9.129 4.32,-18.125 4.32,-27.012 v -61.215 c 0,-4.805 -1.68,-8.879 -5.04,-12.234 -3.36,-3.371 -7.44,-5.039 -12.25,-5.039 -4.8,0 -8.88,1.668 -12.24,5.039 -3.36,3.355 -5.03,7.429 -5.03,12.234 v 61.215 c 0,4.328 -0.55,9.062 -1.63,14.23"
         style="fill:#4f4c4c;fill-opacity:1;fill-rule:nonzero;stroke:none"
         id="path865" />
      <path
         d="m 5846.63,291.293 c 3.36,-3.359 5.04,-7.441 5.04,-12.246 0,-4.809 -1.68,-8.883 -5.04,-12.238 -3.37,-3.371 -7.44,-5.043 -12.24,-5.043 h -79.31 c -4.8,0 -8.89,1.672 -12.24,5.043 -3.37,3.355 -5.04,7.429 -5.04,12.238 0,4.805 1.67,8.887 5.04,12.246 3.35,3.359 7.44,5.039 12.24,5.039 h 79.31 c 4.8,0 8.87,-1.68 12.24,-5.039 z m -195.51,31.691 c -8.41,0 -15.19,-1.504 -20.35,-4.504 -5.16,-3.007 -9.24,-6.66 -12.24,-10.984 -3,-4.316 -5.04,-9.062 -6.12,-14.219 -1.08,-5.168 -1.63,-9.902 -1.63,-14.23 0,-4.32 0.55,-9.067 1.63,-14.223 1.08,-5.168 3.12,-9.902 6.12,-14.219 3,-4.328 7.08,-7.988 12.24,-10.988 5.16,-3.008 11.94,-4.5 20.35,-4.5 h 198.39 c 4.8,0 8.88,-1.679 12.24,-5.039 3.36,-3.367 5.05,-7.441 5.05,-12.246 0,-4.805 -1.69,-8.879 -5.05,-12.234 -3.36,-3.371 -7.44,-5.039 -12.24,-5.039 h -209.92 c -9.84,0 -18.6,2.39 -26.28,7.195 -7.68,4.797 -14.22,10.984 -19.63,18.547 -5.4,7.554 -9.54,16.023 -12.42,25.379 -2.88,9.367 -4.31,18.484 -4.31,27.367 0,9.121 1.49,18.312 4.49,27.551 3.01,9.238 7.38,17.644 13.14,25.203 5.76,7.558 12.73,13.742 20.89,18.547 8.16,4.793 17.4,7.195 27.73,7.195 h 206.31 c 4.8,0 8.88,-1.68 12.24,-5.039 3.36,-3.359 5.05,-7.441 5.05,-12.234 0,-4.805 -1.69,-8.887 -5.05,-12.247 -3.36,-3.371 -7.44,-5.039 -12.24,-5.039 h -198.39"
         style="fill:#4f4c4c;fill-opacity:1;fill-rule:nonzero;stroke:none"
         id="path867" />
      <path
         d="m 5846.63,291.293 c 3.36,-3.359 5.04,-7.441 5.04,-12.246 0,-4.809 -1.68,-8.883 -5.04,-12.238 -3.37,-3.371 -7.44,-5.043 -12.24,-5.043 h -79.31 c -4.8,0 -8.89,1.672 -12.24,5.043 -3.37,3.355 -5.04,7.429 -5.04,12.238 0,4.805 1.67,8.887 5.04,12.246 3.35,3.359 7.44,5.039 12.24,5.039 h 79.31 c 4.8,0 8.87,-1.68 12.24,-5.039"
         style="fill:#33436e;fill-opacity:1;fill-rule:nonzero;stroke:none"
         id="path869" />
      <path
         d="m 4414.29,291.293 c 3.36,-3.359 5.04,-7.441 5.04,-12.246 0,-4.809 -1.68,-8.883 -5.04,-12.238 -3.38,-3.371 -7.44,-5.043 -12.25,-5.043 h -79.3 c -4.81,0 -8.89,1.672 -12.25,5.043 -3.37,3.355 -5.04,7.429 -5.04,12.238 0,4.805 1.67,8.887 5.04,12.246 3.36,3.359 7.44,5.039 12.25,5.039 h 79.3 c 4.81,0 8.87,-1.68 12.25,-5.039"
         style="fill:#33436e;fill-opacity:1;fill-rule:nonzero;stroke:none"
         id="path871" />
    </g>
  </g>
</svg>
